<?xml version="1.0" standalone="no"?>
<!DOCTYPE svg PUBLIC "-//W3C//DTD SVG 20010904//EN"
 "http://www.w3.org/TR/2001/REC-SVG-20010904/DTD/svg10.dtd">
<svg version="1.0" xmlns="http://www.w3.org/2000/svg"
 width="1280.000000pt" height="960.000000pt" viewBox="0 0 1280.000000 960.000000"
 preserveAspectRatio="xMidYMid meet">
<metadata>
Created by potrace 1.16, written by Peter Selinger 2001-2019
</metadata>
<g transform="translate(0.000000,960.000000) scale(0.100000,-0.100000)"
fill="#000000" stroke="none">
<path d="M0 9281 c0 -246 3 -321 13 -325 10 -5 10 -7 0 -12 -18 -8 -16 -21 8
-45 18 -18 26 -20 39 -11 15 9 19 7 23 -10 5 -18 11 -20 64 -14 32 4 107 6
168 5 201 -2 405 12 405 27 0 10 15 14 53 15 28 0 46 3 40 6 -21 8 -15 31 10
36 l22 4 -22 2 c-39 2 -26 28 20 38 31 6 51 5 76 -5 21 -8 36 -10 40 -4 3 6
89 13 189 16 184 6 207 9 197 27 -4 5 -1 9 4 9 6 0 11 6 11 14 0 8 9 18 20 21
11 3 23 17 26 30 3 13 12 29 20 36 12 9 14 6 14 -20 0 -18 -5 -42 -11 -53 -9
-16 -8 -23 2 -29 11 -7 9 -9 -6 -9 -17 -1 -16 -3 5 -11 14 -6 51 -9 82 -7 60
4 78 17 116 81 16 26 32 36 32 18 0 -4 -8 -19 -18 -32 -35 -45 -35 -59 0 -59
17 0 29 3 25 6 -3 4 9 23 28 43 19 20 35 39 35 44 0 4 9 7 20 7 24 0 26 -16 3
-28 -10 -6 -14 -16 -10 -26 4 -10 11 -14 17 -11 5 3 10 1 10 -4 0 -6 5 -11 11
-11 6 0 8 9 4 20 -5 14 -2 20 10 20 8 0 18 7 21 15 4 8 13 15 21 15 8 0 11 5
8 10 -10 17 47 -1 70 -21 90 -80 84 -77 183 -78 50 0 92 2 92 5 0 3 -47 52
-104 111 -58 58 -107 115 -108 127 -3 15 12 37 55 79 33 31 63 57 66 57 10 0
101 98 101 109 0 6 11 11 25 11 20 0 140 56 164 76 2 2 -534 4 -1192 4 l-1197
0 0 -319z"/>
<path d="M3014 9493 c4 -60 8 -164 11 -233 3 -69 5 -127 6 -130 1 -3 2 -21 3
-40 1 -32 3 -35 39 -37 l37 -3 2 77 c1 67 2 71 7 33 4 -25 6 -57 6 -72 -1 -21
4 -28 18 -28 15 0 18 7 16 33 -1 17 -1 67 0 110 1 59 4 77 15 77 8 0 17 -12
19 -27 2 -16 5 56 6 160 l1 187 -96 0 -96 0 6 -107z"/>
<path d="M4025 9590 c3 -5 10 -10 16 -10 5 0 28 -13 51 -30 22 -16 47 -30 55
-30 7 0 13 -3 13 -7 0 -5 23 -24 50 -43 35 -25 48 -39 43 -50 -4 -8 -6 -30 -6
-49 1 -18 -4 -39 -10 -46 -7 -7 -23 -27 -37 -45 -14 -17 -36 -44 -50 -59 -129
-139 -199 -219 -194 -223 4 -5 158 0 224 6 14 2 33 4 43 4 9 1 17 8 17 15 0 6
23 32 50 56 28 24 50 50 50 58 0 10 6 12 20 8 16 -5 19 -3 13 12 -6 17 -5 17
15 -1 29 -25 28 -31 -5 -34 -14 -1 -29 -5 -32 -8 -3 -3 15 -4 39 -2 37 2 47
-1 54 -17 5 -11 27 -35 48 -53 l38 -34 322 12 c621 24 614 23 635 43 26 23 59
22 66 -2 3 -14 11 -18 26 -14 12 3 21 12 21 19 0 9 11 14 30 14 20 0 30 -5 30
-15 0 -23 36 -18 52 7 14 20 18 21 43 10 20 -9 31 -10 41 -1 11 9 15 8 20 -5
10 -25 129 -22 172 4 40 25 82 27 82 4 0 -14 11 -16 88 -10 108 9 124 13 120
34 -2 10 5 26 15 37 10 11 17 29 16 40 -3 43 4 209 8 183 l4 -28 22 24 c37 41
51 59 84 111 18 28 46 65 63 83 16 18 30 35 30 38 0 2 -56 4 -125 4 l-125 0
-1 -112 c-1 -62 -1 -135 0 -163 2 -47 2 -49 -13 -29 -15 21 -46 149 -46 192 0
17 -7 24 -30 29 -30 5 -35 18 -31 66 2 16 -46 17 -931 15 l-933 -3 -3 -23 c-4
-26 -22 -20 -22 9 0 18 -8 19 -121 19 -77 0 -118 -4 -114 -10z"/>
<path d="M6560 9560 c-19 -22 -37 -45 -38 -51 -2 -5 -18 -24 -36 -42 -18 -18
-45 -48 -60 -68 -29 -40 -51 -99 -35 -99 5 0 9 10 10 23 1 21 1 21 8 -3 7 -24
7 -24 19 -5 10 17 13 18 22 5 6 -10 10 -11 10 -3 0 7 11 18 24 25 14 7 25 18
25 23 0 6 7 11 15 13 9 2 16 -3 16 -12 0 -9 5 -16 10 -16 6 0 10 5 10 10 0 6
9 10 19 10 14 0 18 -5 14 -20 -4 -14 0 -20 12 -20 9 0 19 -9 22 -20 6 -22 18
-26 28 -10 13 21 42 8 98 -46 31 -31 57 -60 57 -65 0 -5 5 -9 11 -9 6 0 25
-16 43 -35 30 -32 76 -48 76 -27 0 5 -17 25 -37 45 -21 20 -54 54 -73 76 -19
22 -41 40 -48 41 -9 0 -11 7 -7 22 6 16 4 20 -9 15 -21 -8 -31 10 -16 28 8 9
8 15 2 15 -6 0 -12 -6 -15 -12 -4 -13 -66 48 -67 65 0 4 -7 7 -15 7 -18 0 -30
24 -20 40 4 6 12 7 23 1 21 -11 52 9 52 33 0 12 -5 16 -19 11 -31 -10 -32 21
0 51 16 15 29 31 29 36 0 4 -28 8 -62 8 -61 -1 -64 -2 -98 -40z"/>
<path d="M7920 9551 c0 -26 -3 -70 -7 -96 -4 -35 -3 -46 5 -41 9 5 12 -8 12
-46 0 -58 14 -95 23 -62 3 11 9 55 13 99 l8 80 7 -60 c4 -42 6 -49 7 -23 1 20
5 39 10 41 4 3 5 -15 3 -39 -2 -27 1 -44 8 -44 6 0 11 12 12 28 0 24 1 25 9 7
7 -16 9 -14 9 15 1 26 4 31 11 20 6 -10 8 -4 4 21 -4 22 -2 39 5 43 6 4 11 29
11 57 l0 49 -75 0 -75 0 0 -49z"/>
<path d="M10960 9586 c0 -7 -9 -25 -21 -40 -24 -30 -22 -69 4 -74 12 -3 17 3
17 22 0 24 4 26 40 26 29 0 40 -4 40 -15 0 -11 11 -15 40 -15 36 0 40 -3 40
-25 0 -23 -3 -24 -77 -28 -43 -2 -17 -3 59 -2 102 1 141 5 154 15 16 14 99 26
229 35 32 2 70 7 83 10 17 4 28 0 37 -12 13 -17 14 -17 29 2 19 24 20 52 4 58
-7 2 -10 8 -6 12 4 4 14 2 23 -5 12 -10 18 -8 35 11 10 13 19 27 20 32 0 4
-169 7 -375 7 -310 0 -375 -2 -375 -14z"/>
<path d="M11840 9590 c0 -5 -16 -32 -35 -59 -37 -51 -46 -87 -20 -78 8 4 17 2
21 -4 4 -7 10 -7 18 0 7 6 86 10 192 10 98 0 187 0 197 0 37 2 27 30 -29 85
l-58 56 -143 0 c-88 0 -143 -4 -143 -10z"/>
<path d="M12268 9590 c12 -5 22 -13 22 -18 0 -5 21 -30 47 -55 l47 -47 106 -2
c72 -1 85 -3 42 -5 -36 -2 -60 -8 -57 -13 4 -6 -12 -9 -37 -9 l-43 2 35 7 c34
7 34 7 5 8 -33 1 -84 -16 -52 -17 15 -1 17 -12 17 -81 0 -79 0 -80 25 -80 23
0 25 -4 25 -40 0 -29 4 -40 15 -40 8 0 15 -6 15 -12 1 -7 19 -26 40 -43 33
-25 39 -36 40 -67 0 -38 1 -38 40 -38 l40 0 0 -40 0 -40 80 0 80 0 0 320 0
320 -277 -1 c-176 0 -270 -4 -255 -9z"/>
<path d="M8380 8224 c-8 -3 -24 -9 -35 -13 -11 -5 -59 -21 -108 -36 -48 -15
-92 -34 -97 -40 -6 -7 -22 -16 -35 -19 -14 -4 -25 -13 -25 -21 0 -8 -3 -15 -7
-15 -18 0 -162 -149 -182 -189 -48 -93 -117 -367 -81 -321 14 17 14 20 -20
-105 -42 -153 -48 -180 -44 -187 2 -3 0 -9 -6 -13 -29 -18 0 -356 39 -454 39
-97 45 -117 42 -139 -3 -27 34 -72 59 -72 21 0 106 -83 113 -110 3 -10 -2 -28
-10 -40 -11 -16 -12 -25 -4 -33 6 -6 11 -19 11 -30 0 -10 4 -16 8 -13 5 3 16
-7 24 -22 9 -15 30 -35 47 -45 l30 -18 16 31 c10 19 35 40 68 56 28 14 63 36
77 49 14 12 54 35 90 51 36 16 77 40 91 55 25 26 110 59 154 59 12 0 40 14 61
31 35 27 40 37 45 87 13 117 21 158 42 205 15 36 25 46 36 41 34 -14 58 -15
68 -2 23 28 62 111 78 165 9 32 28 79 41 105 33 64 31 87 -6 101 -33 13 -36
19 -17 36 8 6 22 37 31 68 10 32 22 72 28 88 5 17 15 46 21 65 6 19 11 78 10
130 0 80 -4 101 -23 135 -13 22 -30 54 -38 70 -9 17 -18 32 -21 35 -4 3 -37
40 -76 83 -38 43 -87 88 -109 99 -23 11 -43 24 -46 29 -3 5 -37 20 -75 34 -69
25 -229 43 -265 29z m25 -151 c79 -8 100 -14 123 -34 15 -13 30 -28 33 -33 4
-5 15 -6 24 -2 12 4 16 1 13 -12 -2 -10 -13 -17 -27 -17 -16 0 -28 -9 -35 -25
-6 -14 -14 -28 -18 -31 -5 -3 -7 -66 -6 -141 2 -75 6 -131 10 -125 4 7 10 4
14 -8 10 -27 29 -45 47 -45 13 0 32 -28 24 -36 -2 -2 -30 -6 -62 -10 -33 -3
-63 -8 -67 -10 -4 -2 -33 -7 -65 -9 -106 -10 -112 -12 -118 -53 -3 -20 -15
-54 -26 -75 -16 -29 -19 -48 -14 -78 8 -45 20 -51 29 -14 4 14 11 25 16 25 6
0 10 -11 10 -25 0 -15 6 -25 15 -25 8 0 17 -11 21 -24 3 -15 15 -26 30 -29 13
-2 22 -1 19 3 -2 3 22 6 53 6 32 0 73 7 92 16 19 9 54 18 78 21 l42 5 0 -48
c0 -26 -7 -60 -14 -76 -8 -15 -13 -31 -10 -36 3 -4 0 -8 -5 -8 -6 0 -11 -16
-11 -35 0 -28 -9 -44 -46 -80 -42 -42 -59 -50 -91 -46 -7 1 -13 -3 -13 -9 0
-5 -8 -10 -19 -10 -11 0 -23 -12 -31 -30 -7 -16 -18 -31 -24 -31 -54 -7 -96
-5 -121 6 -50 22 -186 48 -252 49 -53 0 -61 2 -50 14 10 12 8 14 -8 9 -11 -3
-37 -8 -59 -12 -37 -6 -38 -6 -32 18 3 14 9 33 12 42 6 15 4 16 -13 7 -32 -18
-61 -3 -89 47 -23 41 -26 57 -26 141 1 116 4 132 27 140 33 12 67 0 62 -21 -3
-12 0 -19 9 -19 8 0 19 -9 26 -20 10 -16 24 -20 64 -20 44 0 52 3 57 21 4 15
11 20 21 16 9 -4 16 -2 16 4 0 6 5 7 10 4 16 -10 0 -27 -21 -22 -30 8 -10 -13
27 -29 19 -8 34 -18 34 -23 0 -4 -12 -21 -27 -38 -57 -61 -70 -81 -77 -114 -5
-31 -3 -37 24 -52 17 -10 28 -23 25 -28 -4 -5 1 -9 10 -9 11 0 15 -5 11 -15
-4 -13 -2 -13 14 -5 10 5 28 10 40 10 11 0 37 8 58 19 24 12 50 17 74 14 33
-5 38 -2 53 26 9 18 12 37 8 44 -5 8 -9 3 -13 -13 -6 -26 -38 -40 -50 -21 -4
8 -18 7 -46 -5 -47 -20 -85 -20 -116 -1 -13 8 -35 17 -50 21 -35 8 -37 38 -3
60 23 15 24 15 18 -1 -4 -11 -3 -14 5 -9 7 4 12 15 12 25 0 10 9 28 20 41 27
31 36 69 21 92 -9 14 -8 18 4 18 32 0 57 126 28 137 -12 5 -14 17 -9 57 l7 51
-111 35 c-121 39 -132 51 -83 96 34 32 63 96 63 143 0 20 9 47 20 61 11 14 20
30 20 35 0 6 27 37 59 70 64 64 117 90 155 75 30 -11 66 -2 66 17 0 9 6 13 15
10 8 -4 17 -2 20 4 4 5 12 6 18 2 7 -4 21 -8 32 -10z m204 -607 c27 -12 49
-42 39 -51 -4 -4 -25 -11 -48 -16 -36 -8 -44 -7 -56 8 -8 10 -13 13 -14 6 0
-14 -56 -7 -77 10 -9 6 -13 5 -14 -4 0 -14 -16 17 -18 36 -3 30 131 38 188 11z
m-269 -704 c0 -10 5 -23 11 -29 7 -7 -8 -15 -50 -27 -57 -16 -61 -19 -61 -47
0 -26 -6 -33 -45 -50 -35 -16 -49 -18 -66 -9 -11 7 -18 18 -15 25 3 8 0 16 -7
18 -12 5 53 37 75 37 7 0 28 15 46 34 29 30 85 65 105 66 4 0 7 -8 7 -18z"/>
<path d="M9025 6526 c-71 -23 -141 -64 -200 -118 -78 -71 -261 -281 -319 -366
-52 -76 -63 -108 -75 -227 -11 -101 -68 -244 -138 -344 -2 -2 -20 -5 -40 -5
-38 -2 -39 -3 -91 -101 -60 -114 -119 -251 -134 -310 -11 -47 1 -97 39 -163
17 -29 23 -50 19 -67 -8 -32 -41 -33 -51 -2 -20 57 -23 63 -24 45 -1 -10 -4
-18 -7 -18 -8 0 -43 43 -44 53 0 4 -9 20 -20 35 -18 25 -54 141 -46 149 2 2
23 7 47 11 l44 8 -44 6 c-24 4 -47 10 -52 15 -9 9 -10 67 -4 288 12 406 41
715 65 700 5 -3 6 21 3 53 -3 37 -1 67 7 81 6 13 10 25 7 27 -10 11 -76 -27
-116 -67 -9 -9 -31 -19 -49 -22 -18 -4 -38 -11 -45 -17 -6 -6 -33 -24 -58 -40
-89 -58 -136 -107 -156 -163 -23 -67 -24 -241 -1 -347 9 -41 22 -133 28 -205
7 -71 14 -134 17 -138 2 -4 9 -36 14 -70 22 -150 30 -227 33 -324 3 -94 2
-105 -16 -114 -18 -10 -19 -11 -2 -23 13 -10 16 -22 11 -55 -4 -35 -1 -46 18
-67 24 -25 35 -64 35 -120 0 -26 -10 -43 -50 -84 -28 -27 -47 -50 -42 -50 12
0 52 38 105 98 l38 43 54 -43 c67 -54 82 -79 67 -110 -10 -21 -10 -20 -5 10 3
19 1 32 -5 32 -14 0 -25 -35 -17 -59 4 -15 -6 -24 -50 -47 -57 -30 -72 -53
-62 -97 3 -12 10 -38 14 -57 5 -19 13 -35 18 -35 6 0 37 14 70 31 33 17 92 43
130 58 89 33 80 27 159 121 79 94 141 147 251 215 44 27 95 63 113 79 30 26
32 33 32 90 0 61 1 64 49 114 35 38 50 63 54 92 4 23 24 65 47 98 28 39 44 74
50 110 24 147 53 222 119 300 l40 48 -6 70 c-4 50 -1 85 10 122 17 56 30 137
46 287 22 204 104 360 238 456 67 49 69 49 146 49 65 0 75 2 60 13 -10 7 -36
17 -58 23 -22 6 -65 22 -96 35 -62 26 -113 29 -174 10z"/>
<path d="M9706 6005 c11 -58 24 -201 24 -267 0 -49 6 -80 22 -113 20 -42 21
-50 10 -113 -11 -67 -1 -199 16 -212 4 -3 12 -18 18 -35 8 -24 7 -40 -8 -79
-21 -54 -17 -78 28 -168 13 -26 24 -61 24 -77 0 -28 -2 -29 -72 -42 -40 -7
-104 -20 -142 -29 -64 -16 -72 -21 -105 -67 -29 -41 -223 -249 -433 -466 -41
-43 -139 -173 -215 -287 -67 -99 -95 -126 -155 -146 -28 -9 -114 -43 -192 -76
-126 -53 -302 -121 -456 -176 -30 -11 -93 -37 -140 -57 -224 -96 -399 -161
-535 -199 -153 -43 -197 -56 -290 -82 -55 -15 -104 -31 -110 -35 -23 -16 -179
-49 -231 -49 -39 0 -63 -5 -75 -16 -24 -22 -87 -43 -127 -44 -32 0 -93 -26
-100 -42 -2 -5 -11 -8 -19 -8 -9 0 -21 -8 -28 -17 -7 -9 -39 -24 -71 -33 -41
-12 -62 -23 -70 -39 -6 -12 -14 -22 -18 -22 -3 1 -5 -1 -3 -4 1 -2 -9 -12 -22
-21 -19 -14 -25 -14 -32 -3 -5 8 -4 15 1 17 17 6 11 23 -23 76 -51 79 -76 215
-47 251 11 13 10 14 -2 10 -18 -7 -68 96 -68 139 0 22 4 26 30 26 32 0 66 38
57 62 -3 8 -6 6 -6 -6 -1 -12 -6 -16 -16 -12 -8 3 -15 2 -15 -3 0 -4 -17 -5
-37 -2 -34 6 -38 10 -38 36 -1 24 -5 30 -25 32 -14 2 -40 6 -57 9 -21 4 -33 2
-33 -5 0 -6 -9 -11 -19 -11 -13 0 -18 6 -17 18 3 14 13 17 73 16 39 -1 76 -4
82 -8 7 -5 11 5 11 31 0 72 8 83 54 83 22 0 48 5 56 10 12 8 11 10 -6 10 -24
0 -50 41 -41 64 5 12 0 16 -22 16 -15 0 -36 9 -45 19 -10 11 -40 25 -67 31
-27 7 -49 17 -49 23 0 6 -3 7 -7 4 -10 -11 -53 60 -53 88 0 33 18 68 31 60 14
-9 11 5 -5 21 -19 18 -26 18 -26 -2 0 -8 -4 -13 -9 -10 -5 3 -11 -12 -15 -34
-5 -33 -11 -41 -34 -46 -15 -4 -33 -11 -39 -17 -7 -5 -13 -6 -14 -1 -2 25 -10
58 -16 63 -3 3 -3 -14 1 -39 6 -38 4 -46 -15 -61 l-22 -16 32 -24 c37 -28 40
-43 6 -37 -14 3 -28 2 -30 -2 -3 -4 -18 -6 -34 -4 -17 2 -33 -1 -36 -6 -3 -6
-10 -10 -15 -10 -5 0 2 12 16 27 33 35 21 44 -14 10 -22 -21 -38 -27 -71 -27
-27 0 -40 -4 -36 -11 4 -6 19 -7 36 -4 34 8 37 -3 9 -35 -11 -13 -23 -34 -26
-46 -3 -13 -14 -26 -24 -29 -11 -3 -21 -20 -24 -40 -5 -27 -12 -34 -34 -38
-27 -3 -26 -4 11 -21 21 -9 48 -16 60 -14 18 3 23 -3 29 -37 3 -22 11 -58 17
-80 16 -61 14 -69 -24 -89 -19 -11 -35 -23 -35 -28 0 -4 -6 -8 -13 -8 -21 0
-71 128 -74 187 -1 29 -5 58 -10 65 -10 16 -11 58 -2 52 4 -2 11 1 15 7 5 9 0
10 -17 5 -13 -5 -35 -9 -49 -10 -14 -1 -36 -7 -50 -12 -33 -14 -120 -6 -120
11 0 12 -37 4 -120 -27 -24 -9 -24 -10 -5 -21 11 -6 31 -11 45 -13 14 -1 50
-8 80 -16 76 -21 46 -28 -120 -27 -74 1 -151 -2 -171 -6 -40 -7 -58 5 -34 25
19 16 19 77 0 96 -13 14 -15 13 -15 -9 0 -52 -1 -52 -138 -49 -70 2 -133 9
-140 14 -7 6 -15 28 -18 50 -11 66 -37 58 -36 -12 1 -34 -2 -38 -30 -44 -39
-8 -236 -8 -265 0 -17 5 -23 15 -25 48 -4 39 -4 40 -15 16 l-12 -25 -2 25 c-1
17 -4 12 -8 -15 l-6 -40 -75 -3 c-101 -4 -136 3 -145 31 l-8 22 -4 -21 c-4
-19 -13 -22 -89 -29 -47 -4 -88 -4 -91 -1 -3 3 -14 1 -24 -4 -12 -7 -20 -7
-24 0 -4 6 -106 10 -274 10 -149 0 -271 4 -277 9 -5 5 -22 11 -39 14 -17 2 -5
5 28 6 32 0 57 -3 57 -9 0 -5 18 -10 40 -10 47 0 52 14 12 33 -27 14 -146 37
-214 42 -36 3 -38 1 -47 -34 -5 -20 -9 -45 -8 -56 0 -11 0 -38 -1 -60 -3 -59
-26 -28 -25 35 0 27 -4 47 -8 44 -5 -3 -9 -1 -9 5 0 5 6 11 12 13 9 3 3 17
-17 41 -30 36 -55 47 -55 25 0 -10 -2 -10 -8 -1 -5 7 -21 11 -40 9 -27 -4 -32
-1 -32 17 0 26 -54 47 -120 47 -22 0 -40 5 -40 10 0 6 25 10 55 10 48 0 55 2
55 20 0 11 7 20 15 20 8 0 15 5 15 10 0 6 -7 10 -15 10 -8 0 -15 4 -15 9 0 11
103 26 125 18 9 -4 12 -13 8 -24 -6 -16 -5 -16 10 -4 16 13 16 15 1 32 -19 21
-20 21 21 23 21 1 31 7 34 21 3 16 1 17 -12 7 -9 -8 -33 -11 -68 -7 -30 2
-182 7 -338 10 -156 2 -286 7 -289 10 -3 3 2 5 11 5 10 0 17 8 17 20 0 11 -7
20 -15 20 -8 0 -15 6 -15 13 0 8 -11 24 -25 37 -31 29 -44 69 -48 148 -2 34
-7 65 -12 70 -4 4 -5 1 -1 -5 9 -15 -3 -17 -24 -3 -11 7 -11 10 -2 10 7 0 11
4 8 9 -6 10 10 25 38 35 16 6 18 3 13 -24 -4 -16 -3 -30 2 -30 16 0 31 27 25
44 -5 12 -2 15 10 10 14 -5 16 3 16 60 l0 66 -40 0 c-29 0 -40 4 -40 15 0 24
95 114 145 136 31 14 45 25 41 34 -3 8 -1 17 4 20 6 4 10 14 10 23 0 9 14 31
32 49 28 29 30 35 20 58 -20 45 -14 71 28 114 36 37 53 73 33 70 -33 -5 -43 3
-43 34 0 19 3 27 8 20 5 -7 8 4 7 27 0 32 -4 40 -19 40 -17 0 -18 5 -12 53 4
28 14 62 22 74 18 28 18 33 -1 33 -23 0 -37 42 -19 56 10 8 13 21 8 38 -5 20
0 35 20 60 14 19 26 40 26 47 0 7 7 20 15 29 14 15 9 17 -51 29 -60 12 -65 15
-59 35 4 11 9 34 12 49 5 27 5 27 -33 22 -22 -3 -44 -2 -51 2 -6 5 -18 33 -25
62 -15 58 -36 77 -45 42 -4 -16 -9 -18 -22 -11 -17 8 -94 -10 -131 -32 -8 -4
-28 -13 -43 -19 l-28 -11 25 -25 c13 -13 29 -38 35 -54 9 -28 8 -33 -19 -58
l-30 -27 45 -23 c25 -12 45 -29 45 -37 0 -8 5 -14 10 -14 18 0 11 -43 -11 -66
l-21 -22 44 -7 c52 -8 100 -39 123 -78 17 -28 17 -30 0 -40 -17 -9 -16 -11 6
-23 13 -7 32 -13 43 -14 12 0 16 -5 12 -15 -3 -8 -3 -21 0 -28 6 -17 52 -16
63 2 6 9 9 -1 9 -28 0 -22 4 -45 7 -51 9 -14 -8 -13 -23 2 -9 9 -13 7 -18 -5
-3 -9 -10 -14 -16 -11 -5 3 -4 11 3 20 13 16 -9 44 -35 44 -11 0 -13 -8 -9
-35 5 -31 3 -35 -16 -35 -13 0 -21 -6 -21 -16 0 -10 -5 -14 -15 -10 -8 3 -22
9 -30 12 -10 4 -15 0 -15 -11 0 -9 9 -19 20 -22 15 -4 19 -11 14 -25 -4 -15
-3 -18 6 -13 8 5 11 3 8 -6 -3 -9 -24 -15 -60 -17 -64 -3 -72 6 -66 81 3 40 2
41 -27 42 -20 0 -30 5 -30 15 0 8 -7 15 -15 15 -9 0 -14 8 -12 18 2 11 -4 17
-18 17 -36 0 -34 31 8 113 2 4 -3 7 -12 7 -22 0 -46 39 -46 75 0 36 25 75 47
75 13 0 12 5 -7 25 -18 20 -21 28 -12 37 19 19 14 28 -13 28 -30 0 -31 14 -5
58 26 43 25 48 -9 55 -28 6 -29 9 -24 43 5 30 3 36 -8 29 -9 -6 -9 -2 2 11 20
23 35 84 21 84 -6 0 -18 -7 -26 -16 -21 -20 -35 -11 -29 20 6 31 -13 42 -37
21 -13 -12 -27 -15 -45 -11 -19 5 -25 3 -25 -10 0 -10 5 -14 15 -11 8 4 17 2
20 -2 7 -13 -19 -21 -49 -15 -20 3 -26 0 -26 -14 0 -25 -38 -64 -58 -60 -10 2
-24 -4 -32 -14 -11 -12 -38 -19 -95 -23 -44 -4 -82 -8 -84 -10 -2 -2 -4 -25
-5 -52 -1 -44 -4 -49 -34 -62 -18 -8 -31 -19 -29 -25 2 -5 26 -17 55 -26 28
-9 58 -23 67 -30 22 -18 18 -53 -7 -70 -22 -14 -17 -15 66 -20 97 -6 116 -18
116 -72 0 -25 4 -28 33 -28 42 0 70 -20 98 -70 12 -21 26 -37 30 -35 4 3 9 -1
12 -8 3 -9 -5 -12 -32 -9 l-36 4 25 -27 25 -27 -23 -15 c-22 -16 -30 -43 -12
-43 6 0 10 -7 10 -15 0 -9 -9 -15 -21 -15 -18 0 -19 -2 -9 -15 7 -8 22 -15 34
-15 17 0 21 -6 21 -25 -2 -33 -14 -44 -26 -22 -8 13 -14 15 -30 7 -16 -9 -19
-7 -19 10 0 29 -19 25 -52 -12 -27 -31 -29 -37 -24 -95 5 -51 3 -63 -9 -63 -8
0 -19 -8 -25 -17 -8 -14 -9 -9 -5 23 7 47 -5 63 -29 38 -16 -16 -22 -54 -8
-54 15 0 30 -85 24 -135 -6 -44 -10 -50 -30 -48 -16 2 -22 -2 -22 -18 0 -12
-4 -17 -11 -14 -6 4 -8 14 -5 22 3 8 2 12 -2 9 -5 -3 -25 -1 -45 4 -22 5 -39
4 -43 -2 -3 -5 11 -34 32 -64 49 -70 41 -87 -41 -94 -52 -5 -59 -3 -72 17 -9
13 -13 32 -10 43 5 19 0 20 -70 20 -41 0 -73 3 -71 8 58 113 59 148 2 139 -33
-6 -47 6 -21 17 8 3 5 11 -12 25 -23 21 -67 30 -56 11 7 -11 -9 -13 -42 -4
-19 5 -23 13 -23 45 0 43 -5 48 -54 51 -20 2 -36 6 -36 10 0 3 -27 9 -60 13
-45 5 -63 12 -71 27 -6 11 -17 17 -25 14 -21 -8 -34 28 -28 77 6 40 4 46 -22
66 -16 13 -32 30 -35 39 -8 22 27 69 65 89 16 8 38 24 50 34 11 11 37 25 58
31 92 27 140 135 75 169 -37 20 -97 72 -97 84 0 16 -44 35 -81 35 -41 0 -69
17 -69 40 0 15 7 20 25 20 43 0 85 27 85 55 0 13 -8 28 -17 34 -14 7 -15 12
-4 24 10 13 8 18 -13 32 -19 13 -24 23 -20 39 3 14 -3 37 -16 59 -23 39 -40
48 -40 21 0 -10 -7 -14 -23 -12 -28 4 -37 58 -13 78 27 22 18 39 -34 61 -40
17 -50 26 -50 45 0 31 -18 31 -30 -1 -5 -14 -14 -25 -19 -25 -5 0 -18 -16 -30
-35 -14 -24 -28 -35 -44 -35 -34 0 -40 -11 -18 -34 10 -12 22 -38 25 -58 l7
-38 -46 0 c-25 0 -45 3 -45 8 0 4 -17 28 -38 52 -28 35 -44 45 -66 45 -16 -1
-34 5 -41 11 -9 10 -15 10 -24 1 -8 -8 -11 -3 -11 19 0 37 -16 54 -50 54 -15
0 -35 9 -45 20 -10 11 -25 20 -34 20 -19 -1 -61 -37 -79 -69 -13 -21 -11 -26
18 -52 17 -16 37 -45 46 -64 8 -19 19 -35 24 -35 14 0 13 7 -6 35 -9 13 -14
30 -12 37 5 15 38 -43 38 -67 0 -20 -30 -32 -40 -15 -5 8 -9 9 -14 1 -9 -14 2
-32 17 -30 25 3 53 -2 67 -11 13 -8 13 -11 1 -19 -26 -17 -6 -36 35 -33 34 2
45 -3 82 -38 47 -46 52 -56 21 -39 -17 8 -23 8 -29 -1 -4 -7 -13 -9 -19 -5 -7
4 -18 1 -26 -5 -11 -9 -23 -5 -58 19 -37 25 -47 28 -56 17 -13 -15 -22 -98
-11 -91 4 3 11 -2 14 -11 9 -24 7 -31 -4 -14 -6 9 -10 10 -10 3 0 -7 -18 -13
-42 -15 -57 -4 -62 -28 -11 -59 21 -13 49 -24 63 -24 14 -1 24 -6 23 -12 -1
-7 11 -26 28 -44 l30 -33 -23 -12 c-13 -8 -18 -14 -13 -14 6 0 3 -5 -5 -10
-21 -13 -5 -24 55 -40 54 -14 90 -44 90 -74 0 -21 16 -32 57 -41 16 -3 27 -11
25 -17 -1 -6 17 -15 40 -20 26 -6 47 -18 57 -33 17 -26 40 -25 65 4 9 11 15
13 18 4 3 -10 9 -10 24 0 16 10 21 9 29 -3 9 -13 10 -13 10 0 1 8 8 -5 16 -29
13 -37 14 -48 3 -68 -11 -20 -11 -26 0 -33 8 -4 10 -13 7 -19 -14 -23 -22 -9
-23 40 0 28 -6 56 -12 62 -6 6 -11 7 -11 3 0 -5 -6 -3 -14 3 -12 10 -17 8 -25
-7 -6 -11 -9 -21 -7 -23 9 -11 14 -79 5 -79 -5 0 -9 17 -9 38 0 28 -4 39 -15
39 -22 0 -19 -54 5 -79 21 -23 26 -53 10 -63 -6 -3 -2 -25 10 -55 l20 -50 -25
-16 c-14 -9 -25 -20 -25 -24 0 -4 23 -21 50 -38 51 -32 61 -48 35 -58 -19 -8
-10 -23 21 -34 34 -13 30 -27 -12 -45 -29 -12 -44 -13 -80 -4 -25 7 -65 9 -90
6 -36 -4 -46 -1 -55 14 -9 18 -10 18 -29 -1 -20 -20 -20 -30 -3 -302 4 -71 2
-102 -7 -113 -16 -20 -205 -22 -212 -2 -3 6 -4 57 -3 112 l3 100 98 6 c119 6
114 12 -8 9 l-88 -2 0 80 c0 47 -5 84 -11 87 -6 4 -12 5 -13 4 -2 -2 -6 -93
-10 -202 -4 -134 -3 -196 4 -192 5 3 10 1 10 -6 0 -6 -8 -9 -20 -6 -11 3 -20
1 -20 -4 0 -12 -87 -11 -95 1 -3 5 -19 10 -36 10 l-29 0 0 -990 0 -991 133 2
c125 1 136 -1 188 -26 116 -57 233 -88 439 -116 80 -11 175 -24 211 -29 151
-21 562 -41 858 -41 l314 1 -6 -43 c-6 -54 -129 -699 -166 -870 l-27 -132 -85
-17 c-46 -9 -108 -18 -137 -19 -29 -1 -55 -6 -58 -11 -3 -5 -20 -8 -37 -7 -18
0 -92 0 -165 -1 -73 0 -161 2 -195 5 -84 8 -230 36 -241 47 -6 4 -18 8 -28 8
-60 0 -278 158 -278 201 0 7 -7 20 -16 30 -8 9 -19 39 -22 66 l-7 48 -55 7
c-30 4 -156 10 -280 13 -124 3 -232 6 -240 7 -8 1 -34 0 -57 0 l-42 -2 -1
-485 0 -484 33 -6 c18 -4 37 -6 42 -5 6 2 29 2 53 1 31 -1 42 -5 42 -17 0 -8
-3 -13 -8 -11 -4 3 -41 8 -84 12 l-76 7 -1 -121 -1 -121 4646 0 4645 0 -6 58
c-4 31 -10 82 -15 112 -5 30 -11 98 -15 150 -3 52 -12 197 -21 323 -11 170
-12 248 -4 309 5 45 10 86 10 89 0 7 87 23 177 32 63 7 71 -4 82 -110 6 -51
13 -98 17 -104 7 -11 10 -57 18 -279 3 -63 10 -182 16 -265 6 -82 12 -187 13
-232 l1 -83 653 0 c562 0 653 2 653 14 0 8 -5 18 -11 22 -6 3 -9 15 -6 25 3
10 2 19 -2 21 -9 4 -61 106 -61 119 0 6 -11 34 -24 62 -13 29 -29 78 -35 110
-7 31 -16 57 -20 57 -4 0 -14 19 -21 43 -8 23 -18 48 -23 55 -5 7 -11 22 -12
35 -4 37 -5 38 -15 32 -6 -4 -10 5 -9 22 1 15 -6 42 -15 58 -9 17 -16 45 -16
63 0 17 -4 32 -9 32 -9 0 -34 78 -31 95 2 6 2 17 1 25 -1 13 -2 13 -11 0 -8
-12 -10 -12 -10 5 0 26 -50 145 -61 145 -5 0 -6 6 -3 14 5 14 -30 140 -44 160
-5 6 -16 34 -26 61 -10 28 -20 57 -23 65 -7 18 -8 21 -27 88 -8 29 -20 60 -27
68 -10 13 -10 17 2 25 12 7 12 9 -1 9 -41 0 -38 -39 11 -132 5 -10 9 -24 9
-31 0 -7 14 -42 31 -78 17 -35 31 -75 31 -88 0 -17 3 -19 9 -10 6 10 9 7 9
-10 0 -21 -3 -23 -30 -17 -25 4 -30 2 -30 -14 0 -10 5 -22 10 -25 6 -3 10 -18
9 -33 l-1 -27 -7 25 c-7 24 -7 24 -20 5 -11 -19 -12 -18 -8 6 2 18 -2 30 -15
38 -17 11 -18 10 -8 -9 6 -12 9 -26 6 -33 -2 -7 -5 -5 -5 4 -1 20 -31 28 -119
34 -37 3 -68 9 -70 14 -2 6 -9 8 -17 5 -7 -3 -22 4 -32 15 -20 21 -62 29 -156
30 -65 1 -61 24 10 60 29 14 52 32 52 39 1 6 6 12 12 12 6 0 24 11 41 25 20
17 24 25 14 25 -20 0 -110 -48 -136 -72 -11 -10 -24 -18 -29 -18 -6 0 -27 -11
-47 -25 -20 -14 -43 -25 -50 -25 -7 0 -16 -9 -19 -20 -3 -11 -11 -20 -16 -20
-5 0 -9 -10 -9 -22 l0 -23 -20 25 c-16 20 -20 21 -20 8 0 -10 -10 -23 -22 -29
-17 -9 -28 -8 -56 7 -26 14 -36 16 -40 6 -2 -8 -16 -10 -43 -6 -32 5 -39 4
-39 -10 0 -13 -11 -16 -52 -16 -29 0 -90 -3 -134 -6 -60 -4 -84 -3 -89 7 -6 8
-4 10 6 5 8 -4 6 -1 -3 7 -24 19 -23 24 7 31 14 4 25 11 25 18 0 11 -46 8
-175 -13 -33 -5 -100 -14 -149 -20 -50 -6 -107 -16 -128 -23 -21 -8 -35 -10
-32 -5 3 5 -13 9 -36 9 -23 0 -39 -4 -36 -8 7 -12 -184 -2 -264 13 -62 12 -58
12 75 8 177 -7 375 20 375 50 0 5 -9 6 -22 2 -13 -5 -57 -9 -98 -10 -61 -2
-67 -1 -30 5 30 4 36 8 18 8 -15 1 -39 13 -53 26 -22 21 -36 24 -103 24 -87 1
-121 11 -172 50 -40 31 -51 38 -114 71 -25 14 -56 35 -68 48 -20 21 -20 23 -3
23 15 0 16 3 7 12 -6 6 -34 11 -62 9 -30 -1 -50 2 -50 9 0 5 -7 10 -16 10 -8
0 -30 14 -47 32 -18 17 -48 37 -67 44 -19 7 -36 18 -36 26 -1 7 -2 24 -3 38
-1 21 -3 22 -12 10 -8 -11 -9 -6 -5 20 4 19 11 39 18 45 8 7 9 5 4 -9 -3 -10
-4 -34 0 -52 l6 -34 30 25 c16 14 34 25 39 25 5 0 9 13 9 28 0 28 1 29 88 41
48 7 100 19 116 27 18 9 62 14 113 14 66 0 83 3 83 14 0 10 13 16 37 18 45 4
53 20 16 35 -23 9 -9 11 80 12 83 1 107 4 107 15 0 12 28 19 120 31 37 5 100
27 96 33 -2 4 38 5 90 4 63 -3 94 0 94 7 0 6 15 11 33 11 24 0 28 -3 17 -10
-12 -8 -11 -10 6 -10 12 0 24 6 27 13 2 7 29 19 58 26 30 7 77 24 105 37 28
13 56 24 62 24 6 0 28 8 49 19 21 10 75 36 120 57 45 21 82 44 83 51 0 6 10
15 23 18 12 4 46 19 75 33 39 20 51 30 47 43 -3 10 0 21 6 25 9 5 10 2 6 -9
-9 -24 6 -21 21 3 7 11 19 20 26 20 12 0 87 108 92 130 4 20 18 39 25 34 5 -3
9 2 9 11 0 19 28 50 37 41 9 -9 35 46 28 61 -2 8 -1 12 4 9 10 -7 41 37 41 58
0 8 5 16 11 18 20 7 102 155 93 169 -3 5 0 9 5 9 6 0 10 6 9 13 -2 6 3 11 10
9 6 -1 12 7 12 17 0 10 7 21 14 24 8 3 18 22 22 42 3 19 11 38 17 42 6 4 7 1
2 -7 -5 -9 -4 -11 3 -6 6 4 16 25 22 46 6 22 15 40 20 40 13 0 43 67 36 79 -9
14 3 38 22 46 14 5 14 4 -1 -13 -19 -21 -22 -32 -8 -32 13 0 43 69 35 81 -4 7
0 9 13 5 18 -6 20 -3 15 20 -3 19 -1 25 7 20 6 -4 15 2 20 16 5 13 21 36 35
51 14 16 26 32 28 35 7 17 133 122 145 122 7 0 13 3 13 8 0 4 12 15 28 24 l27
17 -25 2 c-14 0 -47 0 -74 -1 -38 -1 -53 3 -72 21 -13 12 -24 30 -24 39 0 22
-47 24 -53 4 -3 -8 -4 -6 -3 3 1 10 9 17 19 17 19 -2 23 11 7 21 -6 4 -8 16
-4 28 4 12 8 81 9 152 2 109 6 136 22 167 11 21 23 34 27 31 8 -9 6 8 -4 32
l-9 20 0 -20 c-1 -13 -4 -16 -9 -8 -4 7 -15 -15 -26 -55 -19 -72 -46 -132 -58
-132 -16 0 -7 44 21 104 55 116 74 221 72 400 -2 107 -7 171 -17 199 -20 55
-74 138 -86 131 -5 -3 -2 -17 8 -32 37 -56 53 -89 64 -130 10 -38 9 -49 -8
-82 -10 -22 -16 -43 -11 -47 4 -4 13 -43 20 -86 11 -63 11 -86 0 -120 -7 -23
-13 -49 -15 -57 -7 -39 -29 -106 -37 -116 -5 -6 -6 -20 -2 -29 4 -11 2 -16 -3
-12 -6 3 -16 -15 -23 -41 -16 -61 -25 -76 -44 -80 -14 -3 -13 5 4 60 11 35 31
84 45 111 13 26 24 57 24 70 0 13 7 32 15 43 20 26 20 150 0 197 -8 20 -15 50
-15 66 0 16 -9 48 -20 72 -11 24 -20 54 -20 65 0 12 -9 32 -21 45 -18 21 -20
21 -14 4 3 -10 9 -40 12 -65 3 -25 12 -57 19 -72 17 -33 38 -156 38 -223 0
-28 -9 -72 -21 -100 -11 -27 -35 -95 -53 -150 -47 -146 -46 -144 -69 -138 -20
5 -21 10 -15 107 3 55 11 119 16 141 9 37 21 115 34 228 3 27 9 60 15 73 5 14
12 56 15 94 7 70 -7 124 -33 135 -17 6 -17 -37 -1 -53 9 -9 9 -15 2 -20 -17
-12 -33 -63 -38 -127 -2 -33 -9 -80 -15 -105 -23 -100 -32 -161 -41 -275 -11
-137 -26 -195 -49 -195 -13 0 -16 11 -14 59 1 33 6 69 12 80 6 11 11 54 11 97
0 83 16 196 33 231 6 13 12 44 14 70 13 179 14 183 34 183 22 0 37 46 20 63
-8 8 -11 7 -11 -4 0 -9 -9 -24 -20 -34 -11 -10 -20 -15 -20 -11 0 4 -33 -27
-74 -70 -86 -89 -111 -144 -122 -269 -3 -44 -13 -95 -22 -113 -24 -54 -90
-101 -158 -112 -33 -6 -69 -13 -81 -15 -35 -8 -31 32 5 47 15 6 64 28 110 49
45 22 87 39 92 39 6 0 10 21 10 48 0 26 4 63 10 81 11 40 3 55 -14 26 -6 -11
-26 -34 -44 -52 -18 -18 -31 -36 -29 -40 3 -5 -7 -22 -22 -40 -32 -38 -160
-90 -173 -70 -16 25 -7 39 40 60 53 25 202 145 202 164 0 29 115 170 173 214
34 25 68 53 76 62 7 9 17 15 21 12 5 -3 11 -1 14 3 12 20 -32 4 -84 -29 -30
-20 -78 -50 -106 -67 -47 -30 -60 -47 -111 -144 -22 -42 -88 -105 -135 -129
-24 -12 -55 -32 -70 -46 -24 -23 -48 -24 -48 -2 0 5 35 35 78 66 105 78 129
101 164 153 17 25 67 80 111 124 45 43 69 70 52 61 -16 -10 -39 -26 -51 -36
-11 -11 -23 -19 -26 -19 -3 0 -59 -53 -124 -118 -66 -65 -139 -133 -163 -152
-42 -32 -43 -33 -36 -9 3 13 22 38 41 54 102 88 183 170 200 200 17 33 65 65
96 65 7 0 24 9 38 20 l25 20 -40 -16 c-24 -10 -41 -12 -43 -6 -1 5 -12 7 -23
5 -16 -5 -18 -8 -7 -14 10 -7 11 -9 0 -9 -7 0 -38 -12 -68 -26 -42 -20 -54
-30 -49 -43 4 -12 -14 -36 -59 -79 -35 -34 -68 -62 -73 -62 -5 0 -4 36 1 83 9
72 11 79 20 55 14 -40 26 -35 26 11 0 42 7 51 60 71 49 19 59 30 26 30 -15 0
-25 -4 -22 -9 4 -5 -11 -7 -33 -4 -23 3 -41 1 -45 -6 -14 -23 -23 -10 -25 37
-2 77 12 100 193 315 56 66 66 84 66 115 0 66 -28 142 -79 220 -27 43 -78 142
-112 222 -55 131 -84 212 -163 465 -14 44 -23 67 -20 50z m-9016 -1269 c6 -8
21 -16 33 -18 22 -3 32 -19 72 -113 15 -35 19 -38 26 -20 7 19 8 19 8 -2 1
-12 -3 -25 -9 -28 -5 -3 -10 -15 -10 -27 0 -16 3 -18 13 -10 10 9 13 4 13 -23
0 -21 8 -43 21 -57 22 -25 47 -91 41 -109 -2 -7 -21 24 -41 67 -54 113 -81
156 -106 165 -17 7 -21 17 -21 48 0 38 -32 91 -67 114 -7 4 -13 12 -13 17 0
15 26 12 40 -4z m9611 -222 c-24 -101 -53 -202 -66 -234 -21 -52 -38 -173 -39
-275 -1 -96 -18 -145 -55 -165 -11 -5 -85 -10 -165 -10 -139 0 -146 1 -146 20
0 25 47 27 91 4 42 -21 73 -15 77 16 3 33 -14 61 -26 42 -13 -19 -127 -12
-127 8 0 17 63 38 120 40 29 0 50 9 75 31 19 16 36 25 38 19 8 -22 -9 -79 -33
-115 -44 -63 1 -78 60 -20 38 38 39 42 26 95 -5 25 -2 58 10 110 10 41 18 91
19 110 2 118 45 240 112 318 15 18 28 38 28 44 0 6 2 9 5 6 3 -3 1 -23 -4 -44z
m-8176 -274 c7 0 15 -15 18 -32 3 -18 8 -40 11 -48 6 -15 -5 -24 -66 -52 -16
-7 -28 -17 -28 -23 0 -5 -8 4 -16 22 -9 17 -21 30 -27 27 -7 -3 -25 -34 -42
-69 -27 -59 -40 -72 -70 -65 -5 1 -20 2 -32 2 -36 1 -27 14 20 28 23 8 43 15
45 16 9 5 -24 54 -36 54 -13 0 -13 3 0 22 9 13 35 26 67 35 67 17 73 21 66 42
-7 22 28 56 50 48 8 -4 15 -1 16 6 0 9 2 9 6 0 2 -7 10 -13 18 -13z m8321
-461 c16 -18 19 -36 18 -108 0 -48 -5 -95 -12 -106 -10 -16 -11 1 -6 86 l7
106 -31 11 c-40 14 -48 4 -17 -20 21 -16 25 -28 25 -73 0 -31 -5 -57 -13 -64
-8 -6 -12 -23 -9 -40 6 -40 -24 -173 -53 -236 -12 -27 -25 -59 -29 -69 -4 -10
-9 -16 -13 -13 -5 6 21 80 58 162 5 11 8 88 6 170 -1 113 -5 154 -16 165 -11
11 -15 12 -19 2 -2 -6 -12 -12 -23 -12 -26 0 -24 -25 5 -43 23 -15 24 -21 25
-133 l1 -116 -51 -104 c-48 -98 -69 -129 -69 -104 0 6 7 24 15 40 42 82 79
245 72 322 -9 96 -23 90 -30 -13 -6 -77 -11 -97 -29 -117 -16 -16 -25 -42 -30
-85 -12 -100 -20 -137 -30 -143 -17 -11 1 179 24 255 11 36 23 98 27 137 9 77
29 115 71 135 14 6 32 15 40 20 27 15 67 9 86 -12z m-9252 -9 c6 -6 20 -10 33
-10 26 0 50 -32 59 -80 6 -26 4 -31 -6 -25 -22 13 -80 15 -80 2 0 -7 24 -37
53 -67 50 -53 52 -58 52 -109 0 -37 -4 -56 -14 -59 -9 -3 -11 1 -7 16 4 11 2
23 -3 26 -6 4 -7 14 -4 24 7 18 -3 11 -66 -47 -14 -13 -36 -30 -48 -38 -13 -9
-23 -22 -23 -29 0 -12 5 -11 25 2 24 16 25 16 25 -9 0 -13 -7 -30 -15 -37 -20
-17 -20 -70 1 -70 8 0 12 5 9 10 -3 6 1 10 9 10 9 0 16 -4 16 -10 0 -5 5 -10
11 -10 5 0 7 5 4 11 -4 5 1 27 11 47 15 33 18 35 26 17 7 -17 8 -16 5 6 -4 26
5 39 40 57 22 12 43 0 43 -25 0 -7 5 -13 10 -13 10 0 14 15 11 34 -1 5 4 13
11 17 10 6 9 15 -5 39 -12 19 -16 37 -11 48 4 9 10 63 13 119 4 56 10 105 14
109 12 13 116 14 123 3 4 -6 2 -14 -4 -18 -12 -7 20 -51 37 -51 5 0 14 -6 18
-13 12 -18 60 -40 72 -33 6 4 23 0 38 -9 25 -15 26 -16 5 -11 -19 4 -22 1 -16
-12 5 -9 8 -33 7 -53 -1 -36 0 -36 36 -33 20 2 58 8 86 14 45 9 51 8 65 -10
23 -30 43 -7 44 53 1 17 6 27 16 27 8 0 35 7 60 16 24 8 52 13 62 11 10 -3 18
-2 18 3 0 17 35 21 47 5 10 -14 26 -16 105 -12 51 2 163 0 248 -4 238 -13 345
-37 370 -84 11 -20 10 -27 -8 -53 -12 -16 -33 -37 -48 -47 -19 -12 -23 -20
-15 -28 6 -6 11 -25 11 -43 0 -53 8 -63 43 -58 18 2 73 6 122 8 50 3 137 9
195 14 147 14 784 15 938 2 265 -22 432 -42 572 -67 80 -14 153 -25 162 -25
10 0 20 -3 23 -9 4 -5 16 -9 28 -9 20 -1 58 -13 110 -35 9 -4 17 -3 17 3 0 11
-41 29 -80 35 -16 3 -10 5 15 5 22 1 58 -5 80 -13 47 -17 45 -17 44 -7 -5 31
3 52 20 52 10 0 24 7 31 15 29 35 74 48 175 49 106 2 174 16 195 41 21 25 42
18 38 -12 -2 -20 -8 -28 -20 -27 -31 3 -23 -43 10 -54 21 -7 37 -4 76 15 52
27 61 24 71 -22 6 -28 5 -29 -8 -12 -14 17 -16 16 -22 -12 -3 -17 -4 -40 0
-51 4 -13 2 -20 -7 -20 -7 0 -18 -8 -25 -18 -9 -16 -8 -18 11 -18 14 1 22 -6
24 -19 3 -19 -3 -20 -163 -22 -111 -2 -165 1 -165 8 0 7 -18 10 -45 7 -33 -2
-44 0 -41 9 4 10 1 10 -14 0 -11 -6 -16 -13 -10 -15 6 -2 7 -8 4 -13 -3 -6 13
-27 36 -47 37 -33 43 -44 47 -88 6 -59 -10 -101 -61 -161 -41 -47 -180 -143
-258 -177 -32 -14 -58 -30 -58 -35 0 -5 -15 -13 -32 -16 -18 -4 -37 -10 -43
-14 -5 -3 -28 -11 -50 -18 -22 -6 -105 -35 -185 -63 -80 -29 -153 -53 -162
-53 -10 -1 -18 -5 -18 -10 0 -5 14 -7 30 -5 17 3 30 1 30 -4 0 -4 -8 -9 -17
-10 -33 -2 -38 -4 -50 -11 -6 -4 -31 -11 -55 -16 -24 -5 -68 -16 -98 -25 -82
-24 -81 -24 -140 -40 -30 -8 -107 -27 -170 -41 -63 -14 -131 -30 -150 -36 -35
-9 -50 -12 -245 -43 -266 -43 -343 -56 -380 -60 -22 -3 -74 -10 -115 -16 -41
-6 -124 -15 -185 -20 -60 -6 -153 -15 -205 -20 -190 -20 -631 -40 -885 -40
-456 0 -921 43 -1205 111 -251 60 -393 136 -453 242 -24 43 -22 129 3 182 26
53 100 126 131 128 13 0 30 9 37 19 7 10 20 18 28 18 8 0 14 6 14 13 0 7 3 8
8 2 4 -5 28 -11 54 -13 37 -3 51 1 67 17 12 12 25 21 31 21 6 0 10 5 10 11 0
6 17 9 43 8 39 -2 87 16 87 33 0 13 -105 9 -118 -4 -9 -9 -12 -9 -12 0 0 6 11
14 25 18 13 3 29 12 35 19 6 7 36 23 68 35 62 24 125 51 130 56 2 1 10 95 17
209 9 130 18 212 26 221 15 19 87 54 109 54 14 0 16 15 16 113 -1 104 1 115
24 147 14 19 35 43 48 53 12 10 22 26 22 36 0 29 39 41 115 36 38 -3 74 -10
79 -15z m8936 10 c54 0 20 -24 -38 -26 -26 -1 -50 -3 -54 -3 -17 -2 -7 -40 13
-46 39 -13 42 -50 15 -161 -15 -56 -26 -122 -26 -147 0 -25 -7 -72 -15 -104
-11 -40 -13 -78 -9 -125 6 -65 6 -68 -15 -68 -20 0 -22 3 -35 73 -6 26 27 219
44 262 18 47 21 244 3 278 -8 16 -13 36 -11 45 4 18 43 33 73 26 11 -2 36 -4
55 -4z m130 -10 c0 -5 -3 -10 -7 -11 -62 -7 -84 -16 -67 -27 14 -9 11 -95 -5
-152 -42 -146 -50 -186 -55 -288 -6 -112 -18 -152 -45 -152 -33 0 26 405 80
548 5 13 9 36 9 52 0 15 6 31 13 33 22 10 77 7 77 -3z m-390 -165 c65 -34 114
-149 80 -190 -15 -18 -20 -256 -6 -295 7 -19 6 -22 -3 -14 -6 6 -18 50 -27 99
-12 72 -13 104 -4 179 l11 91 -28 22 c-15 13 -34 23 -40 23 -7 0 -13 8 -13 19
0 10 -3 33 -6 50 -7 35 -4 37 36 16z m-5417 -1365 c-11 -5 -29 -22 -39 -39
-15 -25 -25 -31 -54 -31 -46 0 -70 -14 -52 -32 9 -9 12 -9 12 5 0 12 8 17 30
17 29 0 30 -2 30 -44 0 -25 5 -48 10 -51 18 -11 11 -42 -12 -53 -20 -9 -18
-11 22 -12 78 -1 688 -19 880 -25 102 -3 234 -8 293 -10 60 -1 110 -5 113 -7
4 -5 35 -247 47 -360 l5 -48 -47 0 c-25 0 -264 7 -531 15 -267 8 -512 14 -545
13 l-60 -1 50 -7 c28 -5 119 -9 203 -9 89 -1 152 -5 152 -11 0 -5 66 -7 173
-4 136 4 183 2 227 -10 l55 -15 -65 6 c-63 5 -67 4 -107 -28 -23 -19 -42 -40
-42 -46 -1 -7 -13 -13 -28 -13 -22 0 -25 2 -13 10 12 8 11 10 -5 10 -12 0 -26
5 -32 11 -12 12 -163 2 -163 -10 0 -4 16 -5 35 -3 23 3 40 -1 50 -12 9 -9 12
-16 6 -16 -5 0 -12 4 -16 9 -5 9 -96 15 -190 13 -22 -1 -67 -2 -100 -2 -33 -1
-64 -5 -70 -10 -5 -4 -39 -4 -75 1 -36 5 -202 11 -369 14 -284 6 -304 5 -317
-12 -9 -12 -12 -13 -9 -3 3 8 -4 21 -15 28 -23 14 -25 7 -5 -28 14 -25 21 -59
9 -47 -8 8 -106 221 -155 337 -22 52 -46 109 -54 125 -48 107 -65 149 -65 160
0 8 14 11 43 9 170 -11 400 -13 390 -3 -14 14 -6 39 11 39 7 0 18 11 24 25 10
21 19 25 52 25 25 0 39 4 35 10 -3 6 -26 10 -51 10 -24 0 -44 5 -44 10 0 6 17
10 38 10 21 0 42 4 48 9 5 6 35 17 66 25 31 8 66 19 77 25 11 6 33 11 48 11
16 0 33 4 39 9 10 10 39 18 64 19 8 0 5 -3 -7 -8z m-939 -226 c9 -8 16 -22 16
-29 0 -8 11 -38 24 -67 56 -125 70 -157 98 -223 16 -38 33 -81 37 -95 5 -14
18 -45 29 -70 12 -25 23 -56 24 -70 2 -14 6 -27 9 -30 17 -15 36 -70 27 -76
-7 -4 -8 -2 -4 4 11 18 -10 14 -28 -4 -15 -14 -16 -14 -16 4 0 11 -3 29 -7 39
-4 12 0 10 15 -7 12 -14 21 -21 22 -17 0 15 -28 63 -46 78 -16 12 -17 12 -11
-3 10 -28 -12 -21 -25 8 -11 23 -13 24 -19 7 -5 -13 -26 22 -80 132 -41 83
-89 184 -108 225 -18 41 -44 98 -57 125 -32 70 -32 69 1 76 53 12 83 9 99 -7z
m-169 -167 c37 -78 92 -198 122 -267 30 -69 61 -138 69 -154 17 -34 18 -46 4
-46 -5 0 -10 7 -10 15 0 9 -7 32 -15 53 -13 29 -18 34 -25 22 -9 -13 -11 -13
-20 0 -9 13 -10 13 -10 0 -1 -12 -2 -12 -10 1 -7 12 -32 19 -92 25 -61 5 -76
9 -58 15 16 4 19 7 8 8 -10 1 -18 9 -19 19 0 14 -2 14 -9 -3 -8 -18 -9 -17 -9
8 -1 15 4 27 9 27 6 0 10 7 10 15 0 10 11 15 35 16 77 3 83 15 12 24 -29 4
-58 10 -64 13 -5 4 -15 50 -21 102 -6 52 -16 96 -22 98 -5 2 0 12 12 21 l22
18 -23 13 c-13 7 -38 14 -55 17 -39 6 -37 4 -28 38 7 23 16 31 53 40 24 6 49
9 55 7 6 -1 42 -67 79 -145z m-450 -26 c-15 -53 -40 -139 -56 -191 -16 -52
-40 -140 -54 -195 -36 -137 -74 -235 -91 -235 -8 0 -14 -4 -14 -10 0 -5 -11
-10 -24 -10 -13 0 -29 -7 -36 -15 -7 -8 -16 -12 -21 -9 -5 3 -18 -10 -29 -30
-25 -40 -69 -73 -79 -58 -4 7 -23 -2 -50 -23 -24 -19 -47 -32 -52 -29 -5 3 -9
0 -9 -6 0 -6 -8 -10 -17 -8 -13 2 -19 -5 -21 -22 -2 -20 -1 -22 7 -10 7 10 11
11 11 3 0 -7 7 -13 15 -13 8 0 15 4 15 9 0 12 45 22 64 15 24 -9 19 -23 -11
-30 -16 -4 -45 -16 -67 -26 -21 -11 -41 -16 -45 -11 -7 9 4 671 14 870 l7 121
46 6 c26 3 112 8 192 11 80 3 178 8 218 11 l72 6 0 -36 c0 -20 5 -36 11 -36 7
0 9 10 5 25 -4 17 -2 25 6 26 10 0 9 2 -1 6 -11 5 -11 7 0 14 24 15 22 -20 -6
-120z m-655 -476 c-6 -253 -13 -461 -14 -462 -1 -2 -39 -5 -85 -8 l-82 -5 5
32 c3 18 13 76 21 128 9 52 31 176 50 275 54 281 54 284 75 400 11 61 23 124
27 140 l8 30 3 -35 c2 -19 -1 -242 -8 -495z m1724 -86 c14 -31 26 -61 26 -68
0 -7 5 -9 10 -6 6 4 10 -8 10 -29 0 -39 20 -51 21 -13 l0 22 9 -22 c13 -31 39
-34 346 -36 150 -1 267 -5 262 -8 -11 -7 167 -15 557 -25 132 -3 314 -7 404
-10 l164 -4 -6 43 c-3 23 -2 35 2 27 5 -8 11 -53 15 -100 3 -47 9 -112 12
-144 5 -40 4 -57 -3 -53 -6 4 -14 52 -18 107 l-7 100 -57 2 c-31 1 -94 2 -141
3 -47 1 -133 5 -192 9 -89 6 -108 5 -108 -6 0 -14 -23 -67 -60 -140 -13 -26
-17 -49 -13 -73 3 -21 2 -35 -5 -35 -5 0 -8 10 -5 23 10 40 -14 6 -57 -82 -31
-64 -44 -81 -53 -72 -9 9 -9 16 1 31 6 11 12 27 12 35 0 8 4 15 9 15 10 0 25
48 22 68 -1 6 4 12 12 12 20 0 40 65 28 89 -12 22 -1 34 21 26 10 -4 21 11 36
47 26 63 27 68 7 68 -8 0 -15 -6 -15 -12 0 -10 -2 -10 -8 -1 -11 17 -411 27
-592 15 l-135 -9 95 -3 c52 -2 78 -5 58 -7 -21 -2 -38 -8 -38 -12 0 -14 29
-33 40 -26 5 3 10 1 10 -4 0 -6 18 -11 40 -11 25 0 40 -5 40 -12 1 -7 19 -26
40 -43 32 -24 39 -35 35 -55 -4 -16 -2 -20 3 -12 13 19 66 -3 58 -24 -3 -9 -6
-22 -6 -30 0 -23 -17 -16 -24 11 -7 29 -21 32 -35 8 -9 -15 -10 -14 -11 10 0
20 -5 27 -20 27 -31 0 -35 -3 -36 -30 0 -14 -7 -41 -16 -60 -9 -19 -19 -47
-22 -62 -8 -35 -25 -37 -18 -2 4 22 -24 104 -35 104 -2 0 -13 -5 -24 -10 -14
-8 -19 -21 -19 -49 0 -36 -3 -40 -37 -50 -37 -10 -37 -11 -4 -6 18 3 46 5 62
5 21 0 29 6 32 23 3 17 5 16 6 -8 1 -30 0 -30 -51 -31 -172 -4 -230 -3 -248 6
-3 1 6 6 20 10 22 7 21 8 -13 9 -25 1 -36 -3 -31 -10 5 -8 1 -8 -13 0 -11 5
-37 11 -57 13 -33 2 -36 5 -37 33 -1 27 -2 26 -9 -10 -4 -22 -5 -45 -3 -52 3
-7 1 -13 -3 -13 -9 0 -19 20 -49 95 -9 22 -24 58 -34 80 -11 22 -32 72 -47
110 -15 39 -33 79 -40 90 -7 11 -32 70 -55 130 -24 61 -46 112 -50 115 -3 3
-10 16 -14 30 -7 24 -6 24 8 5 8 -11 26 -45 41 -76z m-119 -29 c15 -36 35 -83
45 -105 10 -22 28 -65 40 -95 12 -30 31 -72 41 -94 14 -31 15 -42 6 -57 -13
-21 -27 -25 -27 -7 0 6 -2 9 -5 6 -3 -3 0 -18 6 -34 l12 -29 9 33 c5 17 12 32
16 32 7 0 35 -58 70 -147 l20 -52 -23 9 c-14 5 -26 5 -33 -2 -8 -8 -24 17 -58
88 -215 457 -237 507 -223 498 6 -3 14 -16 19 -28 9 -21 9 -21 9 2 1 13 5 20
11 17 6 -3 10 -1 10 6 0 7 3 10 6 6 3 -3 -2 -19 -12 -36 -22 -38 -13 -50 16
-21 17 17 20 28 14 53 -9 45 -1 33 31 -43z m3930 -29 l110 -28 -3 -34 c-5 -47
-39 -99 -76 -115 l-31 -13 29 -1 c24 0 27 -2 16 -15 -13 -15 -5 -20 28 -16 7
1 12 -9 12 -24 0 -15 -4 -24 -10 -20 -5 3 -10 2 -10 -4 0 -5 5 -13 11 -17 8
-5 10 -30 6 -80 -4 -46 -3 -75 4 -79 14 -9 1 -67 -19 -83 -12 -9 -13 -15 -4
-24 17 -17 15 -28 -4 -28 -10 0 -14 -7 -12 -22 2 -13 9 -22 17 -20 7 1 11 -3
9 -10 -3 -7 -19 -13 -36 -14 -17 -1 -29 2 -27 6 3 5 -2 11 -11 14 -11 4 -15 2
-11 -8 4 -10 0 -12 -14 -9 -12 3 -19 14 -19 29 0 27 -10 30 -28 12 -10 -10
-15 -10 -20 -1 -4 6 -25 11 -47 11 -22 0 -60 2 -85 5 -49 6 -107 25 -78 26 11
1 15 7 11 21 -5 19 -20 25 -52 20 -22 -3 -71 21 -71 36 0 7 9 15 19 19 32 10
46 32 31 50 -7 8 -21 15 -31 15 -11 0 -19 7 -19 15 0 8 -4 15 -10 15 -5 0 -10
-7 -10 -15 0 -8 -7 -15 -15 -15 -11 0 -15 -11 -15 -40 0 -22 5 -40 10 -40 6 0
10 -5 10 -10 0 -13 -34 7 -79 47 -31 28 -35 37 -32 71 2 31 -3 46 -23 67 -25
26 -26 27 -26 6 0 -12 6 -21 15 -21 9 0 15 -9 15 -25 0 -22 -4 -25 -40 -25
-22 0 -40 5 -40 10 0 6 -18 10 -40 10 -36 0 -40 -2 -40 -25 0 -14 4 -25 9 -25
4 0 6 -11 4 -24 -4 -17 -10 -23 -22 -19 -54 17 -71 27 -71 43 0 12 -12 21 -40
28 l-40 10 0 -48 c0 -38 -5 -52 -21 -64 -17 -11 -20 -22 -17 -50 4 -32 1 -36
-19 -36 -24 0 -32 -15 -11 -22 8 -3 6 -7 -5 -11 -15 -6 -17 10 -13 208 3 202
7 243 24 220 4 -6 13 -11 20 -13 63 -13 195 -22 397 -27 132 -3 268 -8 303
-12 43 -4 62 -2 62 6 0 6 -17 11 -40 11 -22 0 -40 5 -40 10 0 6 24 10 53 10
37 0 48 3 37 10 -12 8 -9 10 12 10 33 0 58 9 58 21 0 5 -13 9 -30 9 -56 0 -30
17 36 24 44 5 72 13 87 26 24 23 19 24 -47 7 -45 -12 -52 -11 -68 5 -12 12
-33 18 -67 18 -48 0 -72 12 -51 25 6 4 8 15 5 25 -12 38 84 38 230 1z m-4115
-43 c6 -13 14 -30 19 -38 10 -16 81 -169 81 -175 0 -2 24 -54 54 -117 30 -62
54 -114 52 -115 -1 -2 -22 15 -45 37 -42 40 -61 49 -61 30 0 -11 -88 -14 -114
-4 -9 3 -13 10 -10 15 3 5 -4 9 -15 9 -14 0 -21 -6 -21 -20 0 -15 -7 -20 -29
-20 -16 0 -34 6 -40 14 -8 10 -24 12 -51 9 -26 -4 -40 -2 -40 6 0 6 -9 11 -20
11 -13 0 -18 5 -14 15 4 8 1 15 -5 15 -6 0 -11 -7 -11 -16 0 -11 -6 -15 -19
-11 -13 3 -18 1 -14 -9 3 -8 -7 -15 -31 -20 -41 -7 -66 7 -66 38 0 18 6 19 55
16 45 -2 55 0 55 13 0 8 16 21 35 29 19 8 35 18 35 23 0 5 -13 22 -30 37 -24
22 -30 36 -30 70 0 25 -4 39 -10 35 -25 -15 -7 28 23 55 l32 29 -32 1 c-18 0
-33 -5 -33 -10 0 -6 -15 -24 -32 -40 l-33 -29 25 -1 c24 -1 24 -1 6 -15 -21
-16 -13 -35 15 -35 14 0 19 -7 19 -25 0 -22 -4 -25 -40 -25 -22 0 -40 5 -40
10 0 6 -11 10 -25 10 -23 0 -25 -4 -25 -41 0 -39 -1 -41 -25 -35 -33 8 -32 -2
2 -15 19 -7 33 -7 48 1 16 8 28 8 50 -1 l30 -13 -35 -4 c-19 -2 -38 -8 -41
-13 -3 -6 -30 -12 -60 -13 -81 -5 -82 -5 -75 -21 4 -11 -1 -15 -19 -15 -53 0
-36 55 20 66 39 7 45 19 15 29 -21 7 -27 30 -10 40 15 9 -8 29 -49 43 -41 14
-41 14 -41 2 0 -5 9 -10 20 -10 13 0 25 -12 35 -36 8 -20 15 -38 15 -40 0 -2
-16 -4 -35 -4 -19 0 -35 -4 -35 -10 0 -5 -18 -10 -40 -10 -45 0 -52 16 -21 44
10 10 21 26 24 37 4 15 0 19 -18 19 -13 0 -25 -6 -28 -12 -2 -7 -8 0 -12 15
-4 16 -3 38 2 50 10 21 11 21 27 -11 22 -43 51 -40 51 6 0 17 3 32 7 32 5 0 8
-7 8 -16 0 -11 5 -14 16 -10 9 3 27 6 40 6 18 0 24 5 24 21 0 24 17 44 48 53
12 4 22 12 22 17 0 5 14 9 30 9 28 0 30 -2 30 -40 0 -29 4 -40 15 -40 11 0 15
12 15 45 l0 45 -72 1 c-40 0 -95 4 -123 9 -28 5 84 6 259 3 l308 -6 -7 22 c-9
28 3 27 15 -1z m4529 -52 c42 -8 110 -20 151 -26 167 -26 190 -32 190 -56 0
-29 27 -53 36 -31 3 9 1 25 -6 36 -10 20 -8 21 29 21 29 0 48 -7 67 -25 25
-23 28 -55 5 -55 -5 0 -8 -8 -7 -17 2 -13 19 -21 57 -29 42 -9 47 -12 23 -13
-17 0 -45 -4 -61 -7 -28 -5 -30 -9 -32 -52 -1 -25 -8 -59 -16 -75 -19 -38 -19
-73 0 -81 22 -8 18 -31 -7 -50 -13 -9 -17 -14 -10 -11 18 9 44 -19 30 -33 -8
-8 -15 -9 -25 -1 -10 9 -13 8 -13 -5 0 -9 -12 -21 -26 -26 -36 -14 -41 -13
-40 13 1 31 -37 35 -58 6 -13 -20 -16 -20 -22 -6 -9 23 -21 21 -29 -4 -5 -14
-2 -25 6 -30 15 -9 9 -11 -31 -11 -64 0 -90 3 -90 11 0 5 18 7 40 4 32 -4 40
-2 40 10 0 8 -7 18 -16 21 -13 5 -14 9 -5 20 9 11 8 15 -5 20 -24 9 -46 7 -39
-4 3 -5 -3 -11 -14 -11 -12 -1 -27 -2 -33 -3 -7 0 -14 -10 -16 -20 -3 -14 0
-17 11 -13 19 7 33 -23 15 -34 -7 -4 -18 -4 -24 2 -6 5 -20 6 -29 2 -13 -4
-16 -3 -11 5 4 7 1 12 -8 12 -9 0 -16 -4 -16 -10 0 -16 -40 -12 -46 5 -4 8
-14 15 -24 15 -22 0 -60 73 -60 115 0 16 -8 37 -17 47 -15 17 -15 21 -3 29 12
7 13 10 2 18 -15 9 -44 143 -33 151 3 3 6 10 7 15 0 6 4 25 9 43 6 25 10 30
17 20 7 -9 8 -4 3 15 -3 16 -3 44 1 63 7 40 17 42 133 20z m-5279 -408 c-12
-16 -19 -32 -16 -35 3 -3 48 -7 100 -9 69 -2 105 1 131 12 20 8 46 12 58 9 17
-5 19 -4 7 4 -8 6 -23 11 -33 11 -10 0 -16 4 -13 8 3 5 33 2 68 -6 35 -9 93
-16 130 -16 36 -1 70 -4 74 -8 4 -4 19 -5 33 -3 l26 5 -25 -11 c-15 -6 -48 -8
-82 -4 -32 3 -58 2 -58 -3 0 -11 105 -32 163 -32 28 0 47 -5 47 -11 0 -8 5 -7
15 1 13 10 19 10 33 -4 28 -25 43 -21 32 9 -5 14 -6 26 -2 27 4 0 -13 4 -38 8
l-45 8 55 -2 c47 -1 55 -4 57 -21 2 -11 0 -14 -3 -7 -11 25 -23 11 -13 -15 7
-19 7 -29 0 -31 -6 -2 -11 -13 -11 -24 0 -13 -5 -18 -14 -15 -7 3 -13 0 -13
-6 1 -42 -3 -50 -19 -36 -9 7 -18 9 -22 3 -9 -11 -72 -12 -72 -1 0 4 -4 5 -10
2 -5 -3 -65 -1 -132 5 -68 6 -187 15 -266 19 -106 7 -149 13 -168 26 -15 9
-23 12 -20 6 4 -6 0 -11 -10 -11 -12 0 -15 6 -10 23 4 12 12 46 18 74 8 34 18
55 29 58 9 3 20 16 24 28 4 15 8 18 12 9 3 -8 -5 -27 -17 -44z m-2456 -180 c5
-10 7 -10 12 0 8 17 64 15 85 -4 13 -12 43 -16 123 -17 58 -1 106 -5 106 -10
0 -4 14 -5 30 -2 17 3 39 1 48 -5 24 -14 -425 -1 -546 15 -62 9 -43 19 28 16
38 -1 60 2 60 8 0 15 47 14 54 -1z m2511 -94 c44 -5 95 -8 113 -6 19 2 32 -2
32 -9 0 -8 17 -10 60 -6 33 3 58 2 56 -1 -2 -4 18 -7 45 -7 49 1 55 -2 41 -20
-8 -11 -202 -14 -202 -3 0 3 -29 6 -64 7 -36 0 -76 3 -89 7 -19 4 -28 1 -37
-15 -6 -12 -15 -19 -20 -16 -5 3 -10 -5 -13 -17 -3 -21 -4 -21 -11 -5 -6 12
-3 24 9 37 10 11 14 20 8 20 -12 0 -53 34 -53 45 0 4 7 5 15 1 8 -3 15 0 15 7
0 9 2 9 8 1 4 -7 43 -16 87 -20z m-93 -255 c-16 -12 -22 -27 -20 -51 l1 -33 4
33 c4 32 16 41 28 22 4 -6 18 -10 33 -10 15 1 44 -1 65 -4 31 -4 37 -1 37 15
0 10 7 19 15 19 8 0 12 -6 10 -12 -3 -7 -1 -19 4 -27 8 -12 12 -12 24 -2 11 8
17 9 22 1 3 -6 11 -7 17 -4 7 5 9 0 6 -14 -4 -12 -2 -20 3 -16 5 3 14 -7 19
-21 5 -14 15 -23 20 -20 6 4 3 17 -10 35 -11 15 -20 32 -20 37 0 13 43 11 52
-2 4 -5 17 -10 29 -10 12 0 24 -6 26 -12 3 -8 -4 -13 -16 -13 -14 0 -19 -5
-15 -15 5 -11 2 -13 -11 -9 -14 6 -16 3 -11 -13 5 -16 1 -22 -17 -25 -32 -6
-47 1 -47 23 0 10 -4 19 -9 19 -5 0 -7 -9 -4 -19 5 -19 0 -20 -106 -15 -61 3
-119 7 -128 9 -10 2 -22 4 -27 4 -4 1 -6 7 -3 15 4 9 -3 16 -19 19 -13 2 -24
0 -24 -4 0 -5 5 -9 10 -9 6 0 10 -4 10 -10 0 -5 -16 -10 -35 -10 -26 0 -35 4
-36 18 -1 16 -2 16 -6 -1 -2 -9 -9 -17 -15 -17 -5 0 -8 6 -5 13 2 7 10 39 17
72 11 51 14 57 25 42 13 -18 31 -24 20 -8 -3 5 0 13 6 17 7 4 10 3 7 -2 -6 -9
9 -28 25 -32 10 -3 47 35 47 49 0 5 5 7 12 3 8 -5 5 -13 -10 -25z"/>
<path d="M1943 3456 c0 -14 3 -23 8 -20 5 3 9 -4 9 -15 0 -12 3 -21 8 -21 4 0
12 -10 18 -23 9 -19 7 -26 -13 -41 -33 -25 -76 -26 -81 -2 -2 10 2 22 10 27
11 7 11 9 -1 9 -20 0 -40 -31 -41 -61 0 -24 3 -26 32 -24 18 1 34 7 36 14 5
16 22 14 22 -3 0 -9 7 -12 20 -9 13 3 20 14 20 29 0 15 6 24 15 24 13 0 14 -4
5 -21 -15 -28 -5 -35 25 -19 28 15 30 23 13 42 -7 7 -13 20 -13 28 0 10 -8 14
-23 12 l-24 -4 21 21 c12 12 27 17 40 14 11 -3 26 1 34 8 12 11 11 16 -4 32
-15 16 -25 18 -56 12 -44 -10 -65 -7 -74 7 -4 6 -6 -2 -6 -16z"/>
<path d="M2400 3240 c-14 -4 -40 -8 -58 -9 -23 -1 -35 -7 -43 -23 -10 -24
-115 -96 -151 -106 -15 -3 -16 -7 -7 -13 7 -4 18 -4 24 1 6 5 71 14 145 21 74
7 138 17 142 23 5 6 5 24 2 40 -5 24 -3 28 10 23 24 -10 20 19 -6 37 -12 9
-25 16 -28 15 -3 -1 -16 -5 -30 -9z"/>
<path d="M1940 3178 c-36 -5 -77 -15 -91 -22 -14 -7 -41 -11 -60 -9 -27 3 -30
2 -17 -6 9 -6 57 -12 106 -13 66 -2 88 -6 85 -14 -3 -7 -17 -12 -32 -12 -15 1
-38 -5 -51 -12 -13 -7 -46 -16 -74 -20 -49 -7 -48 -8 24 -8 41 0 99 3 128 7
35 5 51 4 49 -3 -5 -14 -50 -24 -142 -29 -118 -8 -205 -24 -250 -46 l-40 -20
120 -2 c66 -2 129 -2 140 -1 11 2 35 3 53 3 17 1 32 5 32 10 0 5 11 9 25 9 26
0 35 -18 13 -24 -7 -2 -48 -10 -90 -16 -43 -7 -78 -17 -78 -22 0 -17 44 -25
84 -15 29 8 41 7 44 -1 5 -15 82 -16 82 -2 0 6 7 10 15 10 8 0 15 9 15 20 0
11 -7 20 -15 20 -23 0 -18 36 8 47 l22 11 -23 9 c-22 8 -22 9 8 26 16 10 30
24 30 31 0 12 -34 30 -52 27 -4 0 0 15 8 34 21 52 29 48 -76 33z"/>
<path d="M3530 4467 c0 -5 -4 -6 -9 -3 -4 3 -16 -3 -26 -14 -14 -16 -15 -24
-6 -53 16 -48 45 -71 92 -73 39 -2 41 -1 36 24 -3 15 -9 35 -12 45 -6 14 -1
17 34 17 57 0 52 20 -6 22 l-48 1 50 6 c33 4 51 11 53 21 2 12 -12 15 -78 15
-44 0 -80 -4 -80 -8z"/>
<path d="M3840 4420 c0 -36 6 -63 16 -76 14 -18 15 -16 10 23 -4 24 -2 44 4
48 6 4 10 -15 10 -50 0 -49 3 -57 23 -64 29 -11 39 -4 32 21 -5 14 -1 21 14
25 19 5 21 13 21 69 0 50 -3 64 -15 64 -8 0 -15 -5 -15 -11 0 -6 -5 -7 -12 -2
-7 4 -30 8 -50 9 l-38 0 0 -56z"/>
<path d="M4420 4450 c0 -27 3 -30 20 -25 14 5 20 2 20 -10 0 -11 -7 -15 -22
-13 -22 3 -23 0 -26 -79 -2 -53 1 -83 8 -83 5 0 10 -15 10 -32 1 -28 2 -30 11
-15 6 9 9 25 8 35 -1 9 -1 42 0 74 1 51 3 56 21 51 16 -4 20 0 20 19 0 13 -5
29 -12 36 -17 17 3 35 33 30 21 -3 23 -7 21 -58 -3 -62 6 -84 28 -70 10 6 15
27 16 65 1 61 16 74 25 23 l6 -33 8 33 c4 18 14 32 22 32 8 0 13 7 11 18 -2
12 -14 17 -43 18 -22 0 -73 4 -112 8 l-73 7 0 -31z"/>
<path d="M10441 4440 c-1 -3 -4 -61 -7 -129 -3 -68 -9 -132 -15 -142 -5 -10
-9 -35 -9 -56 0 -21 -9 -72 -20 -113 -40 -153 -21 -129 41 50 12 36 26 73 30
82 17 34 22 101 11 151 -7 29 -16 77 -21 107 -5 30 -9 53 -10 50z"/>
<path d="M3251 4203 c-6 -7 -11 -30 -11 -53 l0 -40 80 1 c79 1 103 10 82 31
-7 7 -7 16 1 29 8 14 9 21 0 30 -15 15 -138 17 -152 2z"/>
<path d="M7216 4074 c-53 -36 -259 -133 -304 -143 l-37 -8 48 -22 c52 -23 73
-26 81 -13 3 5 41 31 86 57 44 27 80 53 80 58 0 5 6 7 14 4 8 -3 20 1 26 9 7
8 18 14 25 14 7 0 19 7 26 17 12 14 10 14 -21 -2 -19 -10 -38 -23 -42 -29 -6
-8 -8 -8 -8 0 0 7 11 19 25 28 20 13 53 56 43 56 -2 0 -21 -12 -42 -26z"/>
<path d="M11507 3613 c-5 -7 -5 -13 -1 -13 4 0 -1 -9 -11 -20 -10 -11 -26 -20
-36 -20 -9 0 -20 -6 -22 -12 -3 -7 -4 3 -2 22 l5 35 -13 -35 c-6 -19 -15 -40
-19 -46 -23 -35 -68 -205 -68 -256 0 -71 -33 -156 -124 -318 -52 -92 -144
-282 -152 -314 -3 -14 -9 -26 -13 -26 -4 0 -13 -17 -20 -37 -17 -48 -39 -101
-56 -133 -7 -14 -34 -81 -60 -150 -113 -303 -159 -406 -213 -478 -14 -18 -23
-34 -21 -37 5 -4 274 -17 724 -35 138 -5 363 -14 500 -20 138 -6 360 -15 495
-20 300 -12 345 -17 330 -35 -6 -8 -36 -17 -66 -21 -30 -3 -57 -10 -60 -15 -5
-9 0 -10 36 -13 10 -1 14 -11 13 -29 -2 -24 2 -27 27 -27 31 0 47 -14 30 -25
-6 -4 -55 -7 -108 -8 -53 0 -77 -2 -52 -4 24 -3 47 -8 50 -12 7 -11 69 -31 98
-31 18 0 23 -4 18 -16 -4 -9 -2 -13 5 -8 8 5 9 -9 5 -47 -4 -37 -3 -48 3 -34
8 16 10 17 10 3 1 -9 -3 -20 -9 -23 -5 -3 -10 -19 -10 -35 0 -16 -5 -32 -11
-36 -8 -5 -8 -9 1 -14 28 -17 -78 -20 -345 -11 -263 10 -590 25 -805 36 -151
8 -539 24 -730 30 -120 4 -177 9 -182 18 -5 8 -8 8 -8 1 0 -6 9 -21 20 -34 11
-13 20 -19 20 -14 0 10 177 7 200 -3 8 -4 35 -8 60 -8 112 -4 120 -5 120 -20
0 -8 9 -15 20 -15 11 0 20 7 20 15 0 8 5 15 11 15 7 0 9 -10 7 -25 -6 -31 0
-32 12 -2 l9 22 7 -23 c6 -22 24 -31 24 -12 0 20 18 9 24 -14 5 -22 10 -24 44
-19 20 3 40 10 43 15 6 10 56 1 64 -12 2 -4 -21 -7 -52 -7 -47 0 -60 -4 -77
-24 -27 -32 -88 -58 -94 -41 -5 17 -73 15 -99 -3 -20 -14 -103 -21 -265 -24
-30 -1 -38 -5 -38 -19 0 -10 5 -23 12 -30 9 -9 9 -12 0 -12 -7 0 -12 -8 -12
-17 0 -15 2 -16 10 -3 8 12 10 11 10 -8 0 -13 9 -42 20 -64 11 -23 20 -49 20
-58 0 -8 7 -26 16 -38 9 -13 13 -29 10 -37 -3 -9 1 -15 9 -15 8 0 15 -4 15
-10 0 -5 -7 -7 -15 -4 -13 5 -12 -1 1 -48 9 -29 18 -56 21 -60 2 -5 6 -27 9
-50 3 -22 16 -60 29 -83 13 -24 23 -49 22 -56 -2 -23 34 -169 44 -175 5 -3 9
-23 9 -44 0 -27 6 -42 17 -49 10 -5 15 -13 11 -17 -5 -4 -3 -13 3 -21 9 -10 8
-17 -1 -28 -10 -12 -10 -15 3 -15 17 0 31 -40 17 -54 -5 -5 -3 -15 6 -23 8 -8
14 -28 14 -44 l0 -29 890 0 890 0 0 1744 0 1743 -197 7 c-109 3 -207 6 -218 6
-11 0 -65 0 -120 0 -58 0 -101 4 -103 10 -2 6 -13 10 -24 10 -17 0 -19 2 -7
16 21 26 -7 34 -113 32 -78 -2 -98 -5 -102 -18 -3 -8 -4 -4 -3 10 2 23 -1 25
-40 24 -24 -1 -43 1 -43 5 0 4 -38 6 -84 6 -47 0 -81 -2 -76 -5 8 -5 -22 -50
-34 -50 -3 0 -6 14 -6 30 0 29 -2 30 -42 29 -40 -1 -41 -2 -13 -9 28 -7 28 -8
-12 -9 -36 -1 -42 2 -45 22 -2 15 -5 18 -11 10z"/>
<path d="M0 1492 l0 -240 163 -6 c89 -3 242 -8 340 -11 l177 -6 0 63 c0 35 3
142 7 239 l6 176 -199 7 c-110 3 -265 9 -346 12 l-148 7 0 -241z"/>
</g>
</svg>
